<mxfile host="app.diagrams.net" agent="Mozilla/5.0 (Windows NT 10.0; Win64; x64; rv:139.0) Gecko/20100101 Firefox/139.0" version="27.1.6" pages="2">
  <diagram name="Page-1" id="oIERu7hxSgz3ELU_r1fH">
    <mxGraphModel dx="1123" dy="673" grid="1" gridSize="10" guides="1" tooltips="1" connect="1" arrows="1" fold="1" page="1" pageScale="1" pageWidth="3300" pageHeight="4681" math="0" shadow="0">
      <root>
        <mxCell id="0" />
        <mxCell id="1" parent="0" />
        <mxCell id="I9b7CX0NnWNdg1etAfiG-3" style="edgeStyle=orthogonalEdgeStyle;rounded=0;orthogonalLoop=1;jettySize=auto;html=1;exitX=1;exitY=0.5;exitDx=0;exitDy=0;entryX=0;entryY=0.5;entryDx=0;entryDy=0;" edge="1" parent="1" source="I9b7CX0NnWNdg1etAfiG-1" target="I9b7CX0NnWNdg1etAfiG-2">
          <mxGeometry relative="1" as="geometry" />
        </mxCell>
        <mxCell id="I9b7CX0NnWNdg1etAfiG-1" value="data&#xa;Raw&#xa;Mammographic" style="rectangle;fillColor=#fff2cc;strokeColor=#d6b656;" name="data" vertex="1" parent="1">
          <mxGeometry x="300" y="230" width="100" height="50" as="geometry" />
        </mxCell>
        <mxCell id="I9b7CX0NnWNdg1etAfiG-5" style="edgeStyle=orthogonalEdgeStyle;rounded=0;orthogonalLoop=1;jettySize=auto;html=1;exitX=1;exitY=0.5;exitDx=0;exitDy=0;entryX=0.5;entryY=0;entryDx=0;entryDy=0;" edge="1" parent="1" source="I9b7CX0NnWNdg1etAfiG-2" target="I9b7CX0NnWNdg1etAfiG-4">
          <mxGeometry relative="1" as="geometry" />
        </mxCell>
        <mxCell id="I9b7CX0NnWNdg1etAfiG-2" value="transform" style="rounded=1;whiteSpace=wrap;html=1;arcSize=50;fillColor=#f8cecc;strokeColor=#b85450;" name="transform" vertex="1" parent="1">
          <mxGeometry x="480" y="230" width="100" height="50" as="geometry" />
        </mxCell>
        <mxCell id="I9b7CX0NnWNdg1etAfiG-7" style="edgeStyle=orthogonalEdgeStyle;rounded=0;orthogonalLoop=1;jettySize=auto;html=1;exitX=0.5;exitY=1;exitDx=0;exitDy=0;entryX=1;entryY=0.5;entryDx=0;entryDy=0;" edge="1" parent="1" source="I9b7CX0NnWNdg1etAfiG-4" target="I9b7CX0NnWNdg1etAfiG-6">
          <mxGeometry relative="1" as="geometry" />
        </mxCell>
        <mxCell id="I9b7CX0NnWNdg1etAfiG-9" style="edgeStyle=orthogonalEdgeStyle;rounded=0;orthogonalLoop=1;jettySize=auto;html=1;exitX=1;exitY=0.5;exitDx=0;exitDy=0;entryX=0.5;entryY=0;entryDx=0;entryDy=0;" edge="1" parent="1" source="I9b7CX0NnWNdg1etAfiG-4" target="I9b7CX0NnWNdg1etAfiG-8">
          <mxGeometry relative="1" as="geometry" />
        </mxCell>
        <mxCell id="I9b7CX0NnWNdg1etAfiG-4" value="data&#xa;Preprocessed&#xa;Data" style="rectangle;fillColor=#fff2cc;strokeColor=#d6b656;" name="data" vertex="1" parent="1">
          <mxGeometry x="610" y="330" width="100" height="50" as="geometry" />
        </mxCell>
        <mxCell id="I9b7CX0NnWNdg1etAfiG-6" value="infer:deduce" style="rounded=1;whiteSpace=wrap;html=1;arcSize=50;fillColor=#bac8d3;strokeColor=#23445d;" name="infer:deduce" vertex="1" parent="1">
          <mxGeometry x="480" y="430" width="100" height="50" as="geometry" />
        </mxCell>
        <mxCell id="I9b7CX0NnWNdg1etAfiG-25" style="edgeStyle=orthogonalEdgeStyle;rounded=0;orthogonalLoop=1;jettySize=auto;html=1;exitX=1;exitY=0.5;exitDx=0;exitDy=0;entryX=0;entryY=0.5;entryDx=0;entryDy=0;" edge="1" parent="1" source="I9b7CX0NnWNdg1etAfiG-8" target="I9b7CX0NnWNdg1etAfiG-24">
          <mxGeometry relative="1" as="geometry" />
        </mxCell>
        <mxCell id="I9b7CX0NnWNdg1etAfiG-8" value="generate:train" style="rounded=1;whiteSpace=wrap;html=1;arcSize=50;fillColor=#e1d5e7;strokeColor=#9673a6;" name="generate:train" vertex="1" parent="1">
          <mxGeometry x="810" y="480" width="100" height="50" as="geometry" />
        </mxCell>
        <mxCell id="I9b7CX0NnWNdg1etAfiG-10" value="data&#xa;Features" style="rectangle;fillColor=#fff2cc;strokeColor=#d6b656;" name="data" vertex="1" parent="1">
          <mxGeometry x="350" y="530" width="100" height="50" as="geometry" />
        </mxCell>
        <mxCell id="I9b7CX0NnWNdg1etAfiG-12" value="&lt;div&gt;error&lt;/div&gt;&lt;div&gt;&amp;nbsp; --&lt;/div&gt;&lt;div&gt;|&lt;/div&gt;&lt;div&gt;v&lt;/div&gt;" style="text;html=1;align=center;verticalAlign=middle;whiteSpace=wrap;rounded=0;dashed=1;fillColor=#f5f5f5;fontColor=#333333;strokeColor=#666666;strokeWidth=2;" name="text" vertex="1" parent="1">
          <mxGeometry x="400" y="430" width="80" height="100" as="geometry" />
        </mxCell>
        <mxCell id="I9b7CX0NnWNdg1etAfiG-20" style="edgeStyle=orthogonalEdgeStyle;rounded=0;orthogonalLoop=1;jettySize=auto;html=1;exitX=1;exitY=0.5;exitDx=0;exitDy=0;entryX=0;entryY=0.5;entryDx=0;entryDy=0;" edge="1" parent="1" source="I9b7CX0NnWNdg1etAfiG-13" target="I9b7CX0NnWNdg1etAfiG-19">
          <mxGeometry relative="1" as="geometry" />
        </mxCell>
        <mxCell id="I9b7CX0NnWNdg1etAfiG-13" value="generate:engineer" style="rounded=1;whiteSpace=wrap;html=1;arcSize=50;fillColor=#e1d5e7;strokeColor=#9673a6;" name="generate:engineer" vertex="1" parent="1">
          <mxGeometry x="480" y="630" width="100" height="50" as="geometry" />
        </mxCell>
        <mxCell id="I9b7CX0NnWNdg1etAfiG-15" value="&lt;div&gt;error&lt;/div&gt;&lt;div&gt;|&lt;/div&gt;&lt;div&gt;&amp;nbsp;&amp;nbsp;&amp;nbsp; --&amp;gt;&lt;/div&gt;" style="text;html=1;align=center;verticalAlign=middle;whiteSpace=wrap;rounded=0;dashed=1;fillColor=#f5f5f5;fontColor=#333333;strokeColor=#666666;strokeWidth=2;" name="text" vertex="1" parent="1">
          <mxGeometry x="400" y="580" width="80" height="100" as="geometry" />
        </mxCell>
        <mxCell id="I9b7CX0NnWNdg1etAfiG-16" value="symbol&#xa;Fuzzy Rules" style="rectangle;fillColor=#dae8fc;strokeColor=#6c8ebf;" name="symbol" vertex="1" parent="1">
          <mxGeometry x="480" y="760" width="100" height="50" as="geometry" />
        </mxCell>
        <mxCell id="I9b7CX0NnWNdg1etAfiG-18" value="&lt;div&gt;error&lt;/div&gt;&lt;div&gt;^&lt;/div&gt;&lt;div&gt;|&lt;/div&gt;&lt;div&gt;|&lt;/div&gt;" style="text;html=1;align=center;verticalAlign=middle;whiteSpace=wrap;rounded=0;dashed=1;fillColor=#f5f5f5;fontColor=#333333;strokeColor=#666666;strokeWidth=2;" name="text" vertex="1" parent="1">
          <mxGeometry x="510" y="680" width="40" height="80" as="geometry" />
        </mxCell>
        <mxCell id="I9b7CX0NnWNdg1etAfiG-19" value="model:hybrid&#xa;ANFIS Framework" style="shape=hexagon;perimeter=hexagonPerimeter2;fillColor=#b0e3e6;strokeColor=#0e8088;" name="model" vertex="1" parent="1">
          <mxGeometry x="660" y="630" width="120" height="50" as="geometry" />
        </mxCell>
        <mxCell id="I9b7CX0NnWNdg1etAfiG-23" value="&lt;div&gt;error&lt;/div&gt;&lt;div&gt;&amp;nbsp; ^&lt;/div&gt;&lt;div&gt;&amp;nbsp; |&lt;/div&gt;&lt;div&gt;--&lt;/div&gt;" style="text;html=1;align=center;verticalAlign=middle;whiteSpace=wrap;rounded=0;dashed=1;fillColor=#f5f5f5;fontColor=#333333;strokeColor=#666666;strokeWidth=2;" name="text" vertex="1" parent="1">
          <mxGeometry x="780" y="530" width="80" height="150" as="geometry" />
        </mxCell>
        <mxCell id="I9b7CX0NnWNdg1etAfiG-27" style="edgeStyle=orthogonalEdgeStyle;rounded=0;orthogonalLoop=1;jettySize=auto;html=1;exitX=1;exitY=0.5;exitDx=0;exitDy=0;entryX=0;entryY=0.5;entryDx=0;entryDy=0;" edge="1" parent="1" source="I9b7CX0NnWNdg1etAfiG-24" target="I9b7CX0NnWNdg1etAfiG-26">
          <mxGeometry relative="1" as="geometry" />
        </mxCell>
        <mxCell id="I9b7CX0NnWNdg1etAfiG-24" value="model:hybrid&#xa;ANFIS" style="shape=hexagon;perimeter=hexagonPerimeter2;fillColor=#b0e3e6;strokeColor=#0e8088;" name="model" vertex="1" parent="1">
          <mxGeometry x="990" y="480" width="120" height="50" as="geometry" />
        </mxCell>
        <mxCell id="I9b7CX0NnWNdg1etAfiG-31" style="edgeStyle=orthogonalEdgeStyle;rounded=0;orthogonalLoop=1;jettySize=auto;html=1;exitX=1;exitY=0.5;exitDx=0;exitDy=0;entryX=0;entryY=0.5;entryDx=0;entryDy=0;" edge="1" parent="1" source="I9b7CX0NnWNdg1etAfiG-26" target="I9b7CX0NnWNdg1etAfiG-30">
          <mxGeometry relative="1" as="geometry" />
        </mxCell>
        <mxCell id="I9b7CX0NnWNdg1etAfiG-26" value="infer:predict" style="rounded=1;whiteSpace=wrap;html=1;arcSize=50;fillColor=#bac8d3;strokeColor=#23445d;" name="infer:deduce" vertex="1" parent="1">
          <mxGeometry x="1190" y="480" width="100" height="50" as="geometry" />
        </mxCell>
        <mxCell id="I9b7CX0NnWNdg1etAfiG-29" style="edgeStyle=orthogonalEdgeStyle;rounded=0;orthogonalLoop=1;jettySize=auto;html=1;exitX=0.5;exitY=1;exitDx=0;exitDy=0;entryX=0.5;entryY=0;entryDx=0;entryDy=0;" edge="1" parent="1" source="I9b7CX0NnWNdg1etAfiG-28" target="I9b7CX0NnWNdg1etAfiG-26">
          <mxGeometry relative="1" as="geometry" />
        </mxCell>
        <mxCell id="I9b7CX0NnWNdg1etAfiG-28" value="data&#xa;Patient&#xa;Mammographic" style="rectangle;fillColor=#fff2cc;strokeColor=#d6b656;" name="data" vertex="1" parent="1">
          <mxGeometry x="1190" y="350" width="100" height="50" as="geometry" />
        </mxCell>
        <mxCell id="I9b7CX0NnWNdg1etAfiG-30" value="symbol&#xa;Diagnosis&#xa;Severity" style="rectangle;fillColor=#dae8fc;strokeColor=#6c8ebf;" name="symbol" vertex="1" parent="1">
          <mxGeometry x="1370" y="480" width="100" height="50" as="geometry" />
        </mxCell>
      </root>
    </mxGraphModel>
  </diagram>
  <diagram name="Copy of Page-1" id="7u9ETkRPxmljvrmoe_bc">
    <mxGraphModel dx="1429" dy="856" grid="1" gridSize="10" guides="1" tooltips="1" connect="1" arrows="1" fold="1" page="1" pageScale="1" pageWidth="3300" pageHeight="4681" math="0" shadow="0">
      <root>
        <mxCell id="DNpqUbqL2zxq2-8tdKt6-0" />
        <mxCell id="DNpqUbqL2zxq2-8tdKt6-1" parent="DNpqUbqL2zxq2-8tdKt6-0" />
        <mxCell id="DNpqUbqL2zxq2-8tdKt6-2" style="edgeStyle=orthogonalEdgeStyle;rounded=0;orthogonalLoop=1;jettySize=auto;html=1;exitX=1;exitY=0.5;exitDx=0;exitDy=0;entryX=0;entryY=0.5;entryDx=0;entryDy=0;" edge="1" parent="DNpqUbqL2zxq2-8tdKt6-1" source="DNpqUbqL2zxq2-8tdKt6-3" target="DNpqUbqL2zxq2-8tdKt6-5">
          <mxGeometry relative="1" as="geometry" />
        </mxCell>
        <mxCell id="DNpqUbqL2zxq2-8tdKt6-3" value="data&#xa;Raw&#xa;Mammographic" style="rectangle;fillColor=#fff2cc;strokeColor=#d6b656;" name="data" vertex="1" parent="DNpqUbqL2zxq2-8tdKt6-1">
          <mxGeometry x="300" y="230" width="100" height="50" as="geometry" />
        </mxCell>
        <mxCell id="DNpqUbqL2zxq2-8tdKt6-4" style="edgeStyle=orthogonalEdgeStyle;rounded=0;orthogonalLoop=1;jettySize=auto;html=1;exitX=1;exitY=0.5;exitDx=0;exitDy=0;entryX=0.5;entryY=0;entryDx=0;entryDy=0;" edge="1" parent="DNpqUbqL2zxq2-8tdKt6-1" source="DNpqUbqL2zxq2-8tdKt6-5" target="DNpqUbqL2zxq2-8tdKt6-8">
          <mxGeometry relative="1" as="geometry" />
        </mxCell>
        <mxCell id="DNpqUbqL2zxq2-8tdKt6-5" value="transform" style="rounded=1;whiteSpace=wrap;html=1;arcSize=50;fillColor=#f8cecc;strokeColor=#b85450;" name="transform" vertex="1" parent="DNpqUbqL2zxq2-8tdKt6-1">
          <mxGeometry x="480" y="230" width="100" height="50" as="geometry" />
        </mxCell>
        <mxCell id="DNpqUbqL2zxq2-8tdKt6-6" style="edgeStyle=orthogonalEdgeStyle;rounded=0;orthogonalLoop=1;jettySize=auto;html=1;exitX=0.5;exitY=1;exitDx=0;exitDy=0;entryX=1;entryY=0.5;entryDx=0;entryDy=0;" edge="1" parent="DNpqUbqL2zxq2-8tdKt6-1" source="DNpqUbqL2zxq2-8tdKt6-8" target="DNpqUbqL2zxq2-8tdKt6-9">
          <mxGeometry relative="1" as="geometry" />
        </mxCell>
        <mxCell id="DNpqUbqL2zxq2-8tdKt6-7" style="edgeStyle=orthogonalEdgeStyle;rounded=0;orthogonalLoop=1;jettySize=auto;html=1;exitX=1;exitY=0.5;exitDx=0;exitDy=0;entryX=0.5;entryY=0;entryDx=0;entryDy=0;" edge="1" parent="DNpqUbqL2zxq2-8tdKt6-1" source="DNpqUbqL2zxq2-8tdKt6-8" target="DNpqUbqL2zxq2-8tdKt6-11">
          <mxGeometry relative="1" as="geometry" />
        </mxCell>
        <mxCell id="DNpqUbqL2zxq2-8tdKt6-8" value="data&#xa;Preprocessed&#xa;Data" style="rectangle;fillColor=#fff2cc;strokeColor=#d6b656;" name="data" vertex="1" parent="DNpqUbqL2zxq2-8tdKt6-1">
          <mxGeometry x="610" y="330" width="100" height="50" as="geometry" />
        </mxCell>
        <mxCell id="Ef5qhJXzFVLInXVwQNdi-0" style="edgeStyle=orthogonalEdgeStyle;rounded=0;orthogonalLoop=1;jettySize=auto;html=1;exitX=0;exitY=0.5;exitDx=0;exitDy=0;entryX=0.5;entryY=0;entryDx=0;entryDy=0;" edge="1" parent="DNpqUbqL2zxq2-8tdKt6-1" source="DNpqUbqL2zxq2-8tdKt6-9" target="DNpqUbqL2zxq2-8tdKt6-12">
          <mxGeometry relative="1" as="geometry" />
        </mxCell>
        <mxCell id="DNpqUbqL2zxq2-8tdKt6-9" value="infer:deduce" style="rounded=1;whiteSpace=wrap;html=1;arcSize=50;fillColor=#bac8d3;strokeColor=#23445d;" name="infer:deduce" vertex="1" parent="DNpqUbqL2zxq2-8tdKt6-1">
          <mxGeometry x="480" y="430" width="100" height="50" as="geometry" />
        </mxCell>
        <mxCell id="DNpqUbqL2zxq2-8tdKt6-10" style="edgeStyle=orthogonalEdgeStyle;rounded=0;orthogonalLoop=1;jettySize=auto;html=1;exitX=1;exitY=0.5;exitDx=0;exitDy=0;entryX=0;entryY=0.5;entryDx=0;entryDy=0;" edge="1" parent="DNpqUbqL2zxq2-8tdKt6-1" source="DNpqUbqL2zxq2-8tdKt6-11" target="DNpqUbqL2zxq2-8tdKt6-22">
          <mxGeometry relative="1" as="geometry" />
        </mxCell>
        <mxCell id="DNpqUbqL2zxq2-8tdKt6-11" value="generate:train" style="rounded=1;whiteSpace=wrap;html=1;arcSize=50;fillColor=#e1d5e7;strokeColor=#9673a6;" name="generate:train" vertex="1" parent="DNpqUbqL2zxq2-8tdKt6-1">
          <mxGeometry x="810" y="480" width="100" height="50" as="geometry" />
        </mxCell>
        <mxCell id="Ef5qhJXzFVLInXVwQNdi-1" style="edgeStyle=orthogonalEdgeStyle;rounded=0;orthogonalLoop=1;jettySize=auto;html=1;exitX=0.5;exitY=1;exitDx=0;exitDy=0;entryX=0;entryY=0.5;entryDx=0;entryDy=0;" edge="1" parent="DNpqUbqL2zxq2-8tdKt6-1" source="DNpqUbqL2zxq2-8tdKt6-12" target="DNpqUbqL2zxq2-8tdKt6-15">
          <mxGeometry relative="1" as="geometry" />
        </mxCell>
        <mxCell id="DNpqUbqL2zxq2-8tdKt6-12" value="data&#xa;Features" style="rectangle;fillColor=#fff2cc;strokeColor=#d6b656;" name="data" vertex="1" parent="DNpqUbqL2zxq2-8tdKt6-1" tooltip="⚠️ Node not part of any valid pattern.">
          <mxGeometry x="350" y="530" width="100" height="50" as="geometry" />
        </mxCell>
        <mxCell id="DNpqUbqL2zxq2-8tdKt6-14" style="edgeStyle=orthogonalEdgeStyle;rounded=0;orthogonalLoop=1;jettySize=auto;html=1;exitX=1;exitY=0.5;exitDx=0;exitDy=0;entryX=0;entryY=0.5;entryDx=0;entryDy=0;" edge="1" parent="DNpqUbqL2zxq2-8tdKt6-1" source="DNpqUbqL2zxq2-8tdKt6-15" target="DNpqUbqL2zxq2-8tdKt6-19">
          <mxGeometry relative="1" as="geometry" />
        </mxCell>
        <mxCell id="DNpqUbqL2zxq2-8tdKt6-15" value="generate:engineer" style="rounded=1;whiteSpace=wrap;html=1;arcSize=50;fillColor=#e1d5e7;strokeColor=#9673a6;" name="generate:engineer" vertex="1" parent="DNpqUbqL2zxq2-8tdKt6-1" tooltip="⚠️ Node not part of any valid pattern.">
          <mxGeometry x="480" y="630" width="100" height="50" as="geometry" />
        </mxCell>
        <mxCell id="Ef5qhJXzFVLInXVwQNdi-2" style="edgeStyle=orthogonalEdgeStyle;rounded=0;orthogonalLoop=1;jettySize=auto;html=1;exitX=0.5;exitY=0;exitDx=0;exitDy=0;entryX=0.5;entryY=1;entryDx=0;entryDy=0;" edge="1" parent="DNpqUbqL2zxq2-8tdKt6-1" source="DNpqUbqL2zxq2-8tdKt6-17" target="DNpqUbqL2zxq2-8tdKt6-15">
          <mxGeometry relative="1" as="geometry" />
        </mxCell>
        <mxCell id="DNpqUbqL2zxq2-8tdKt6-17" value="symbol&#xa;Fuzzy Rules" style="rectangle;fillColor=#dae8fc;strokeColor=#6c8ebf;" name="symbol" vertex="1" parent="DNpqUbqL2zxq2-8tdKt6-1" tooltip="⚠️ Node not part of any valid pattern.">
          <mxGeometry x="480" y="760" width="100" height="50" as="geometry" />
        </mxCell>
        <mxCell id="Ef5qhJXzFVLInXVwQNdi-3" style="edgeStyle=orthogonalEdgeStyle;rounded=0;orthogonalLoop=1;jettySize=auto;html=1;exitX=1;exitY=0.5;exitDx=0;exitDy=0;entryX=0.5;entryY=1;entryDx=0;entryDy=0;" edge="1" parent="DNpqUbqL2zxq2-8tdKt6-1" source="DNpqUbqL2zxq2-8tdKt6-19" target="DNpqUbqL2zxq2-8tdKt6-11">
          <mxGeometry relative="1" as="geometry" />
        </mxCell>
        <mxCell id="DNpqUbqL2zxq2-8tdKt6-19" value="model:hybrid&#xa;ANFIS Framework" style="shape=hexagon;perimeter=hexagonPerimeter2;fillColor=#b0e3e6;strokeColor=#0e8088;" name="model" vertex="1" parent="DNpqUbqL2zxq2-8tdKt6-1">
          <mxGeometry x="660" y="630" width="120" height="50" as="geometry" />
        </mxCell>
        <mxCell id="DNpqUbqL2zxq2-8tdKt6-21" style="edgeStyle=orthogonalEdgeStyle;rounded=0;orthogonalLoop=1;jettySize=auto;html=1;exitX=1;exitY=0.5;exitDx=0;exitDy=0;entryX=0;entryY=0.5;entryDx=0;entryDy=0;" edge="1" parent="DNpqUbqL2zxq2-8tdKt6-1" source="DNpqUbqL2zxq2-8tdKt6-22" target="DNpqUbqL2zxq2-8tdKt6-24">
          <mxGeometry relative="1" as="geometry" />
        </mxCell>
        <mxCell id="DNpqUbqL2zxq2-8tdKt6-22" value="model:hybrid&#xa;ANFIS" style="shape=hexagon;perimeter=hexagonPerimeter2;fillColor=#b0e3e6;strokeColor=#0e8088;" name="model" vertex="1" parent="DNpqUbqL2zxq2-8tdKt6-1">
          <mxGeometry x="990" y="480" width="120" height="50" as="geometry" />
        </mxCell>
        <mxCell id="DNpqUbqL2zxq2-8tdKt6-23" style="edgeStyle=orthogonalEdgeStyle;rounded=0;orthogonalLoop=1;jettySize=auto;html=1;exitX=1;exitY=0.5;exitDx=0;exitDy=0;entryX=0;entryY=0.5;entryDx=0;entryDy=0;" edge="1" parent="DNpqUbqL2zxq2-8tdKt6-1" source="DNpqUbqL2zxq2-8tdKt6-24" target="DNpqUbqL2zxq2-8tdKt6-27">
          <mxGeometry relative="1" as="geometry" />
        </mxCell>
        <mxCell id="DNpqUbqL2zxq2-8tdKt6-24" value="infer:predict" style="rounded=1;whiteSpace=wrap;html=1;arcSize=50;fillColor=#bac8d3;strokeColor=#23445d;" name="infer:deduce" vertex="1" parent="DNpqUbqL2zxq2-8tdKt6-1">
          <mxGeometry x="1190" y="480" width="100" height="50" as="geometry" />
        </mxCell>
        <mxCell id="DNpqUbqL2zxq2-8tdKt6-25" style="edgeStyle=orthogonalEdgeStyle;rounded=0;orthogonalLoop=1;jettySize=auto;html=1;exitX=0.5;exitY=1;exitDx=0;exitDy=0;entryX=0.5;entryY=0;entryDx=0;entryDy=0;" edge="1" parent="DNpqUbqL2zxq2-8tdKt6-1" source="DNpqUbqL2zxq2-8tdKt6-26" target="DNpqUbqL2zxq2-8tdKt6-24">
          <mxGeometry relative="1" as="geometry" />
        </mxCell>
        <mxCell id="DNpqUbqL2zxq2-8tdKt6-26" value="data&#xa;Patient&#xa;Mammographic" style="rectangle;fillColor=#fff2cc;strokeColor=#d6b656;" name="data" vertex="1" parent="DNpqUbqL2zxq2-8tdKt6-1">
          <mxGeometry x="1190" y="350" width="100" height="50" as="geometry" />
        </mxCell>
        <mxCell id="DNpqUbqL2zxq2-8tdKt6-27" value="symbol&#xa;Diagnosis&#xa;Severity" style="rectangle;fillColor=#dae8fc;strokeColor=#6c8ebf;" name="symbol" vertex="1" parent="DNpqUbqL2zxq2-8tdKt6-1">
          <mxGeometry x="1370" y="480" width="100" height="50" as="geometry" />
        </mxCell>
        <mxCell id="OFjWrOglihiUFDhDSwTr-0" value="&lt;div&gt;error&lt;/div&gt;" style="text;html=1;align=center;verticalAlign=middle;whiteSpace=wrap;rounded=0;dashed=1;fillColor=#f5f5f5;fontColor=#333333;strokeColor=#666666;strokeWidth=2;" name="text" vertex="1" parent="DNpqUbqL2zxq2-8tdKt6-1">
          <mxGeometry x="430" y="690" width="50" height="30" as="geometry" />
        </mxCell>
      </root>
    </mxGraphModel>
  </diagram>
</mxfile>
